<?xml version="1.0" encoding="utf-8"?>
<!-- Generator: Adobe Illustrator 24.1.0, SVG Export Plug-In . SVG Version: 6.00 Build 0)  -->
<svg version="1.1" id="Capa_1" xmlns="http://www.w3.org/2000/svg" xmlns:xlink="http://www.w3.org/1999/xlink" x="0px" y="0px"
	 viewBox="0 0 512 512" style="enable-background:new 0 0 512 512;" xml:space="preserve">
<style type="text/css">
	.st0{fill:#FFFFFF;}
</style>
<path class="st0" d="M169.6,377.6c-22.9,0-41.6,18.7-41.6,41.6c0,22.9,18.7,41.6,41.6,41.6s41.6-18.7,41.6-41.6
	C211.2,396.3,192.5,377.6,169.6,377.6z M48,51.2v41.6h41.6l74.9,151.7l-31.3,51c-3.1,5.2-5.2,12.5-5.2,19.8
	c0,27.9,19,41.6,44.8,41.6H416v-40H177.9c-3.1,0-5.2-2.1-5.2-5.2c0-1,2.2-5.2,2.2-5.2l20.8-32.8h155c15.6,0,29.1-8.3,36.4-21.8
	L461.9,123c1.2-2.5,2.1-6.2,2.1-10.4c0-11.4-9.4-19.8-20.8-19.8H135.4l-19.8-41.6H48z M374.4,377.6c-22.9,0-41.6,18.7-41.6,41.6
	c0,22.9,18.7,41.6,41.6,41.6s41.6-18.7,41.6-41.6C416,396.3,397.3,377.6,374.4,377.6z"/>
</svg>
